<?xml version="1.0" encoding="UTF-8"?>
<svg width="153px" height="96px" viewBox="0 0 153 96" version="1.1" xmlns="http://www.w3.org/2000/svg" xmlns:xlink="http://www.w3.org/1999/xlink">
    <!-- Generator: Sketch 57.1 (83088) - https://sketch.com -->
    <title>logo 3</title>
    <desc>Created with Sketch.</desc>
    <g id="Page-1" stroke="none" stroke-width="1" fill="none" fill-rule="evenodd">
        <g id="logo-2" fill="#000000" fill-rule="nonzero">
            <g id="logo">
                <path d="M1.96,0 C0.88,0 0,0.85 0,1.88 L0,90.18 C0,91.18 0.88,92.04 1.94,92.04 L28.04,92.04 L28.04,90.39 L1.96,90.39 C1.81,90.39 1.71,90.29 1.71,90.16 L1.71,1.87 C1.71,1.73 1.81,1.65 1.95,1.65 L150.75,1.65 C150.9,1.65 150.99,1.73 150.99,1.88 L150.99,90.18 C150.99,90.31 150.89,90.4 150.75,90.4 L123.35,90.4 L123.35,92.04 L150.75,92.04 C151.82,92.04 152.7,91.18 152.7,90.16 L152.7,1.87 C152.7,0.85 151.82,0 150.76,0 L1.96,0 Z" id="Path"></path>
                <g id="hot-coffee-rounded-cup-on-a-plate-from-side-view" transform="translate(37.000000, 10.000000)">
                    <path d="M10.2093414,65.3174137 L20.7055246,65.3174137 C20.8514038,66.2615724 21.6092638,67 22.5663734,67 L46.4300686,67 C47.3907362,67 48.1450382,66.2652461 48.2909173,65.3174137 L58.7871005,65.3174137 C60.5625566,65.3174137 62,63.8332109 62,62 L7,62 C7,63.8332109 8.4374434,65.3174137 10.2093414,65.3174137 Z" id="Path"></path>
                    <path d="M75.1219707,34.8107944 C72.4144834,32.7795634 68.6016789,32.7462098 66.0922126,33.0030321 C66.1642203,31.3820497 66.2038245,29.7243784 66.2038245,28 L0,28 C0,44.5767132 2.70748727,56.5372953 19.8417053,61 L46.3621192,61 C53.1488393,59.2355973 57.6493168,56.2704669 60.6340335,52.3280776 C67.1363234,52.2113402 77.5954332,49.839903 77.9878748,41.5215282 C78.1570928,37.8793208 76.5225193,35.8580958 75.1219707,34.8107944 Z M63.3595227,47.5718617 C64.6052549,44.6067314 65.3433332,41.2713766 65.7501763,37.6058217 C67.5071628,37.3389933 70.535084,37.1688902 72.0652464,38.322923 C72.3460762,38.5363857 73.220969,39.1967859 73.1201583,41.3280776 C72.9149365,45.637356 67.1399238,47.0848999 63.3595227,47.5718617 Z" id="Shape"></path>
                    <path d="M26.5433451,27 C26.5433451,27 39.5230675,26.1561474 33.5746461,16.466618 C28.7981083,8.68807005 29.888405,4.12404232 36,0 C36,0 15.9815595,4.51477563 27.6558927,18.485954 C31.9392011,24.5735133 26.5433451,27 26.5433451,27 Z" id="Path"></path>
                    <path d="M36,25 C36,25 45.7096025,23.0172538 40.425418,15.451953 C38.5070443,12.1708603 41.1525993,11 41.1525993,11 C41.1525993,11 34.9023024,11.1912293 37.5409319,16.3946801 C39.6532206,20.5782411 39.0264596,22.9535107 36,25 Z" id="Path"></path>
                </g>
            </g>
        </g>
        <text id="Coffee-Thoughts" font-family="SFUIText-Bold, SF UI Text" font-size="11" font-weight="bold" letter-spacing="-0.265294095" fill="#000000">
            <tspan x="31" y="93">Coffee Thoughts</tspan>
        </text>
    </g>
</svg>